<svg xmlns="http://www.w3.org/2000/svg" xmlns:xlink="http://www.w3.org/1999/xlink" contentStyleType="text/css" height="177px" preserveAspectRatio="none" style="width:111px;height:177px;background:#FFFFFF;" version="1.1" viewBox="0 0 111 177" width="111px" zoomAndPan="magnify"><defs/><g><line style="stroke:#181818;stroke-width:0.5;stroke-dasharray:5.0,5.0;" x1="28" x2="28" y1="40.2719" y2="138.2719"/><line style="stroke:#181818;stroke-width:0.5;stroke-dasharray:5.0,5.0;" x1="85" x2="85" y1="40.2719" y2="138.2719"/><rect fill="#E2E2F0" height="34.2719" rx="2.5" ry="2.5" style="stroke:#181818;stroke-width:0.5;" width="46" x="5" y="5"/><text fill="#000000" font-family="sans-serif" font-size="14" lengthAdjust="spacing" textLength="32" x="12" y="28.2399">Alice</text><rect fill="#E2E2F0" height="34.2719" rx="2.5" ry="2.5" style="stroke:#181818;stroke-width:0.5;" width="46" x="5" y="137.2719"/><text fill="#000000" font-family="sans-serif" font-size="14" lengthAdjust="spacing" textLength="32" x="12" y="160.5118">Alice</text><rect fill="#E2E2F0" height="34.2719" rx="2.5" ry="2.5" style="stroke:#181818;stroke-width:0.5;" width="40" x="65" y="5"/><text fill="#000000" font-family="sans-serif" font-size="14" lengthAdjust="spacing" textLength="26" x="72" y="28.2399">Bob</text><rect fill="#E2E2F0" height="34.2719" rx="2.5" ry="2.5" style="stroke:#181818;stroke-width:0.5;" width="40" x="65" y="137.2719"/><text fill="#000000" font-family="sans-serif" font-size="14" lengthAdjust="spacing" textLength="26" x="72" y="160.5118">Bob</text><polygon fill="#181818" points="73,77.2719,83,81.2719,73,85.2719,77,81.2719" style="stroke:#181818;stroke-width:1.0;"/><line style="stroke:#181818;stroke-width:1.0;" x1="28" x2="79" y1="81.2719" y2="81.2719"/><svg x="40" y="54.2719"><!--Generated by the Batik Graphics2D SVG Generator--><defs id="genericDefs"
  /><g
  ><g transform="scale(20,20) translate(0.2,0.8833)" style="font-size:1; text-rendering:geometricPrecision; color-rendering:optimizeQuality; image-rendering:optimizeQuality; font-family:&apos;jlm_cmmi10&apos;; color-interpolation:linearRGB;"
    ><path style="stroke:none;" d="M0.7656 -0.6875 L0.7031 -0.4375 Q0.6875 -0.4219 0.6875 -0.4219 L0.6875 -0.4219 L0.6719 -0.4219 Q0.6562 -0.4219 0.6562 -0.4375 L0.6719 -0.4844 L0.6719 -0.4844 Q0.6719 -0.6094 0.5938 -0.6562 L0.5938 -0.6562 Q0.5469 -0.6719 0.5 -0.6719 Q0.4062 -0.6719 0.3125 -0.5938 Q0.2812 -0.5781 0.2656 -0.5469 Q0.1719 -0.4375 0.1406 -0.2656 Q0.1406 -0.2344 0.1406 -0.2188 Q0.1406 -0.0781 0.25 -0.0312 Q0.2812 -0.0156 0.3438 -0.0156 Q0.4375 -0.0156 0.5156 -0.0781 Q0.5938 -0.1406 0.625 -0.2344 Q0.625 -0.25 0.6406 -0.25 Q0.6406 -0.25 0.6406 -0.2344 Q0.6406 -0.2188 0.625 -0.1719 Q0.5938 -0.1094 0.5312 -0.0625 Q0.4375 0.0156 0.3281 0.0156 Q0.1875 0.0156 0.1094 -0.0625 Q0.0469 -0.1406 0.0469 -0.25 Q0.0469 -0.4062 0.1562 -0.5312 Q0.2656 -0.6562 0.3906 -0.6875 Q0.4531 -0.7031 0.5 -0.7031 Q0.6094 -0.7031 0.6562 -0.6094 L0.7344 -0.6875 Q0.75 -0.7031 0.75 -0.7031 Q0.7656 -0.7031 0.7656 -0.6875 Z"
    /></g
    ><g transform="matrix(20,0,0,20,0,0) translate(0.9147,1.0333) scale(0.7,0.7)" style="font-size:1; text-rendering:geometricPrecision; color-rendering:optimizeQuality; image-rendering:optimizeQuality; font-family:&apos;jlm_cmmi10&apos;; color-interpolation:linearRGB;"
    ><path style="stroke:none;" d="M0.1719 -0.1094 L0.5312 -0.7031 Q0.5312 -0.7188 0.5469 -0.7188 Q0.5625 -0.7188 0.5625 -0.7031 Q0.5781 -0.7031 0.5781 -0.6875 L0.6406 -0.0625 Q0.6406 -0.0469 0.6406 -0.0312 L0.6406 -0.0312 L0.6406 -0.0312 L0.6406 -0.0312 L0.6406 -0.0312 L0.6406 -0.0312 Q0.6562 -0.0312 0.7031 -0.0312 Q0.7188 -0.0312 0.7188 -0.0156 Q0.7188 0 0.7031 0 L0.5938 0 L0.5938 0 L0.4688 0 L0.4688 0 Q0.4531 0 0.4531 -0.0156 Q0.4531 -0.0312 0.4688 -0.0312 Q0.5469 -0.0312 0.5469 -0.0625 Q0.5469 -0.0625 0.5312 -0.2344 L0.2812 -0.2344 L0.2031 -0.1094 Q0.1875 -0.0781 0.1875 -0.0625 Q0.1875 -0.0312 0.2344 -0.0312 Q0.25 -0.0312 0.25 -0.0156 Q0.25 0 0.2344 0 L0.1406 0 L0.1406 0 L0.0469 0 L0.0469 0 Q0.0312 0 0.0312 -0.0156 Q0.0312 -0.0312 0.0469 -0.0312 L0.0469 -0.0312 L0.0625 -0.0312 Q0.125 -0.0312 0.1562 -0.0781 Q0.1719 -0.0938 0.1719 -0.1094 ZM0.2969 -0.2656 L0.5312 -0.2656 L0.5 -0.5938 L0.2969 -0.2656 Z"
    /></g
  ></g
></svg
>
<polygon fill="#181818" points="39,116.2719,29,120.2719,39,124.2719,35,120.2719" style="stroke:#181818;stroke-width:1.0;"/><line style="stroke:#181818;stroke-width:1.0;" x1="33" x2="84" y1="120.2719" y2="120.2719"/><svg x="40" y="93.2719"><!--Generated by the Batik Graphics2D SVG Generator--><defs id="genericDefs"
  /><g
  ><g transform="scale(20,20) translate(0.2,0.8833)" style="font-size:1; text-rendering:geometricPrecision; color-rendering:optimizeQuality; image-rendering:optimizeQuality; font-family:&apos;jlm_cmmi10&apos;; color-interpolation:linearRGB;"
    ><path style="stroke:none;" d="M0.7656 -0.6875 L0.7031 -0.4375 Q0.6875 -0.4219 0.6875 -0.4219 L0.6875 -0.4219 L0.6719 -0.4219 Q0.6562 -0.4219 0.6562 -0.4375 L0.6719 -0.4844 L0.6719 -0.4844 Q0.6719 -0.6094 0.5938 -0.6562 L0.5938 -0.6562 Q0.5469 -0.6719 0.5 -0.6719 Q0.4062 -0.6719 0.3125 -0.5938 Q0.2812 -0.5781 0.2656 -0.5469 Q0.1719 -0.4375 0.1406 -0.2656 Q0.1406 -0.2344 0.1406 -0.2188 Q0.1406 -0.0781 0.25 -0.0312 Q0.2812 -0.0156 0.3438 -0.0156 Q0.4375 -0.0156 0.5156 -0.0781 Q0.5938 -0.1406 0.625 -0.2344 Q0.625 -0.25 0.6406 -0.25 Q0.6406 -0.25 0.6406 -0.2344 Q0.6406 -0.2188 0.625 -0.1719 Q0.5938 -0.1094 0.5312 -0.0625 Q0.4375 0.0156 0.3281 0.0156 Q0.1875 0.0156 0.1094 -0.0625 Q0.0469 -0.1406 0.0469 -0.25 Q0.0469 -0.4062 0.1562 -0.5312 Q0.2656 -0.6562 0.3906 -0.6875 Q0.4531 -0.7031 0.5 -0.7031 Q0.6094 -0.7031 0.6562 -0.6094 L0.7344 -0.6875 Q0.75 -0.7031 0.75 -0.7031 Q0.7656 -0.7031 0.7656 -0.6875 Z"
    /></g
    ><g transform="matrix(20,0,0,20,0,0) translate(0.9147,1.0333) scale(0.7,0.7)" style="font-size:1; text-rendering:geometricPrecision; color-rendering:optimizeQuality; image-rendering:optimizeQuality; font-family:&apos;jlm_cmmi10&apos;; color-interpolation:linearRGB;"
    ><path style="stroke:none;" d="M0.1562 -0.0781 L0.2969 -0.6094 Q0.2969 -0.625 0.2969 -0.6406 Q0.2969 -0.6406 0.2812 -0.6562 L0.2812 -0.6562 L0.2812 -0.6562 Q0.2812 -0.6562 0.2656 -0.6562 Q0.25 -0.6562 0.2344 -0.6562 Q0.2031 -0.6562 0.2031 -0.6562 Q0.2031 -0.6875 0.2188 -0.6875 L0.2188 -0.6875 L0.2188 -0.6875 L0.2344 -0.6875 L0.5625 -0.6875 Q0.6875 -0.6875 0.7344 -0.6094 Q0.75 -0.5781 0.75 -0.5469 Q0.75 -0.4688 0.6719 -0.4062 Q0.6719 -0.4062 0.6562 -0.4062 Q0.6094 -0.375 0.5469 -0.3594 Q0.6562 -0.3438 0.6875 -0.2812 Q0.7031 -0.25 0.7031 -0.2188 Q0.7031 -0.1406 0.625 -0.0781 L0.625 -0.0781 Q0.5469 0 0.4219 0 L0.0625 0 Q0.0469 0 0.0469 -0.0156 Q0.0469 -0.0312 0.0625 -0.0312 L0.0625 -0.0312 Q0.1406 -0.0312 0.1406 -0.0469 Q0.1562 -0.0469 0.1562 -0.0781 Q0.1562 -0.0781 0.1562 -0.0781 ZM0.3125 -0.3594 L0.4531 -0.3594 Q0.5625 -0.3594 0.625 -0.4375 Q0.6719 -0.4844 0.6719 -0.5469 Q0.6719 -0.625 0.6094 -0.6406 Q0.5781 -0.6562 0.5625 -0.6562 L0.4219 -0.6562 Q0.3906 -0.6562 0.3906 -0.6406 L0.3906 -0.6406 L0.3906 -0.6406 L0.375 -0.6406 L0.375 -0.6406 Q0.375 -0.6406 0.375 -0.6094 L0.3125 -0.3594 ZM0.2656 -0.0312 L0.4062 -0.0312 Q0.5 -0.0312 0.5625 -0.1094 Q0.6094 -0.1562 0.6094 -0.2344 Q0.6094 -0.2969 0.5625 -0.3281 Q0.5312 -0.3438 0.5 -0.3438 L0.3125 -0.3438 L0.2344 -0.0625 Q0.2344 -0.0469 0.2344 -0.0469 Q0.2344 -0.0312 0.2344 -0.0312 L0.2344 -0.0312 L0.2344 -0.0312 L0.25 -0.0312 Q0.25 -0.0312 0.2656 -0.0312 Z"
    /></g
  ></g
></svg
>
<!--MD5=[4e6cf7e844172e514ac5a918bbefe3d7]
@startuml
skinparam sequenceMessageAlign center
participant Alice as A
participant Bob as B
A -> B : <latex>C_A</latex>
B -> A : <latex>C_B</latex>
@enduml

PlantUML version 1.2022.4(Sat Apr 09 21:29:17 CST 2022)
(GPL source distribution)
Java Runtime: OpenJDK Runtime Environment
JVM: OpenJDK 64-Bit Server VM
Default Encoding: UTF-8
Language: zh
Country: CN
--></g></svg>