<svg id="SvgjsSvg1151" width="1393.5" height="541" xmlns="http://www.w3.org/2000/svg" version="1.1" xmlns:xlink="http://www.w3.org/1999/xlink" xmlns:svgjs="http://svgjs.com/svgjs"><defs id="SvgjsDefs1152"><marker id="SvgjsMarker1197" markerWidth="14" markerHeight="10" refX="10" refY="5" viewBox="0 0 14 10" orient="auto" markerUnits="userSpaceOnUse" stroke-dasharray="0,0"><path id="SvgjsPath1198" d="M0,0 L14,5 L0,10 L0,0" fill="#323232" stroke="#323232" stroke-width="1"></path></marker><marker id="SvgjsMarker1213" markerWidth="14" markerHeight="10" refX="10" refY="5" viewBox="0 0 14 10" orient="auto" markerUnits="userSpaceOnUse" stroke-dasharray="0,0"><path id="SvgjsPath1214" d="M0,0 L14,5 L0,10 L0,0" fill="#323232" stroke="#323232" stroke-width="1"></path></marker><marker id="SvgjsMarker1223" markerWidth="14" markerHeight="10" refX="10" refY="5" viewBox="0 0 14 10" orient="auto" markerUnits="userSpaceOnUse" stroke-dasharray="0,0"><path id="SvgjsPath1224" d="M0,0 L14,5 L0,10 L0,0" fill="#323232" stroke="#323232" stroke-width="1"></path></marker><marker id="SvgjsMarker1227" markerWidth="14" markerHeight="10" refX="10" refY="5" viewBox="0 0 14 10" orient="auto" markerUnits="userSpaceOnUse" stroke-dasharray="0,0"><path id="SvgjsPath1228" d="M0,0 L14,5 L0,10 L0,0" fill="#323232" stroke="#323232" stroke-width="1"></path></marker><marker id="SvgjsMarker1249" markerWidth="14" markerHeight="10" refX="10" refY="5" viewBox="0 0 14 10" orient="auto" markerUnits="userSpaceOnUse" stroke-dasharray="0,0"><path id="SvgjsPath1250" d="M0,0 L14,5 L0,10 L0,0" fill="#323232" stroke="#323232" stroke-width="1"></path></marker><marker id="SvgjsMarker1264" markerWidth="14" markerHeight="10" refX="10" refY="5" viewBox="0 0 14 10" orient="auto" markerUnits="userSpaceOnUse" stroke-dasharray="0,0"><path id="SvgjsPath1265" d="M0,0 L14,5 L0,10 L0,0" fill="#323232" stroke="#323232" stroke-width="1"></path></marker><marker id="SvgjsMarker1274" markerWidth="14" markerHeight="10" refX="10" refY="5" viewBox="0 0 14 10" orient="auto" markerUnits="userSpaceOnUse" stroke-dasharray="0,0"><path id="SvgjsPath1275" d="M0,0 L14,5 L0,10 L0,0" fill="#323232" stroke="#323232" stroke-width="1"></path></marker><marker id="SvgjsMarker1278" markerWidth="14" markerHeight="10" refX="10" refY="5" viewBox="0 0 14 10" orient="auto" markerUnits="userSpaceOnUse" stroke-dasharray="0,0"><path id="SvgjsPath1279" d="M0,0 L14,5 L0,10 L0,0" fill="#323232" stroke="#323232" stroke-width="1"></path></marker><marker id="SvgjsMarker1282" markerWidth="14" markerHeight="10" refX="10" refY="5" viewBox="0 0 14 10" orient="auto" markerUnits="userSpaceOnUse" stroke-dasharray="0,0"><path id="SvgjsPath1283" d="M0,0 L14,5 L0,10 L0,0" fill="#323232" stroke="#323232" stroke-width="1"></path></marker><marker id="SvgjsMarker1286" markerWidth="14" markerHeight="10" refX="10" refY="5" viewBox="0 0 14 10" orient="auto" markerUnits="userSpaceOnUse" stroke-dasharray="0,0"><path id="SvgjsPath1287" d="M0,0 L14,5 L0,10 L0,0" fill="#323232" stroke="#323232" stroke-width="1"></path></marker></defs><rect id="svgbackgroundid" width="1393.5" height="541" fill="#ffffff"></rect><g id="SvgjsG1154" transform="translate(525.5,25)"><path id="SvgjsPath1155" d="M 0 0L 277 0L 277 58L 0 58Z" stroke="rgba(50,50,50,1)" stroke-width="2" fill-opacity="1" fill="#f5d9a4"></path><g id="SvgjsG1156"><text id="SvgjsText1157" font-family="微软雅黑" text-anchor="middle" font-size="22px" width="257px" fill="#323232" font-weight="400" align="middle" lineHeight="125%" anchor="middle" family="微软雅黑" size="22px" weight="400" font-style="" opacity="1" y="9.25" transform="rotate(0)"><tspan id="SvgjsTspan1158" dy="27" x="138.5"><tspan id="SvgjsTspan1159" style="text-decoration:;">用户ID</tspan></tspan></text></g></g><g id="SvgjsG1160" transform="translate(525.5,83)"><path id="SvgjsPath1161" d="M 0 0L 277 0L 277 58L 0 58Z" stroke="rgba(50,50,50,1)" stroke-width="2" fill-opacity="1" fill="#f5d9a4"></path><g id="SvgjsG1162"><text id="SvgjsText1163" font-family="微软雅黑" text-anchor="middle" font-size="22px" width="257px" fill="#323232" font-weight="400" align="middle" lineHeight="125%" anchor="middle" family="微软雅黑" size="22px" weight="400" font-style="" opacity="1" y="9.25" transform="rotate(0)"><tspan id="SvgjsTspan1164" dy="27" x="138.5"><tspan id="SvgjsTspan1165" style="text-decoration:;">用户公钥</tspan></tspan></text></g></g><g id="SvgjsG1166" transform="translate(525.5,140)"><path id="SvgjsPath1167" d="M 0 0L 277 0L 277 58L 0 58Z" stroke="rgba(50,50,50,1)" stroke-width="2" fill-opacity="1" fill="#f5d9a4"></path><g id="SvgjsG1168"><text id="SvgjsText1169" font-family="微软雅黑" text-anchor="middle" font-size="22px" width="257px" fill="#323232" font-weight="400" align="middle" lineHeight="125%" anchor="middle" family="微软雅黑" size="22px" weight="400" font-style="" opacity="1" y="9.25" transform="rotate(0)"><tspan id="SvgjsTspan1170" dy="27" x="138.5"><tspan id="SvgjsTspan1171" style="text-decoration:;">CA识别信息</tspan></tspan></text></g></g><g id="SvgjsG1172" transform="translate(525.5,197)"><path id="SvgjsPath1173" d="M 0 0L 277 0L 277 58L 0 58Z" stroke="rgba(50,50,50,1)" stroke-width="2" fill-opacity="1" fill="#f5d9a4"></path><g id="SvgjsG1174"><text id="SvgjsText1175" font-family="微软雅黑" text-anchor="middle" font-size="22px" width="257px" fill="#323232" font-weight="400" align="middle" lineHeight="125%" anchor="middle" family="微软雅黑" size="22px" weight="400" font-style="" opacity="1" y="9.25" transform="rotate(0)"><tspan id="SvgjsTspan1176" dy="27" x="138.5"><tspan id="SvgjsTspan1177" style="text-decoration:;">证书信息</tspan></tspan></text></g></g><g id="SvgjsG1178" transform="translate(525.5,255)"><path id="SvgjsPath1179" d="M 0 0L 277 0L 277 58L 0 58Z" stroke="rgba(50,50,50,1)" stroke-width="2" fill-opacity="1" fill="#fff9c4"></path><g id="SvgjsG1180"><text id="SvgjsText1181" font-family="微软雅黑" text-anchor="middle" font-size="22px" width="257px" fill="#323232" font-weight="400" align="middle" lineHeight="125%" anchor="middle" family="微软雅黑" size="22px" weight="400" font-style="" opacity="1" y="9.25" transform="rotate(0)"><tspan id="SvgjsTspan1182" dy="27" x="138.5"><tspan id="SvgjsTspan1183" style="text-decoration:;">签名部分</tspan></tspan></text></g></g><g id="SvgjsG1184" transform="translate(403.5,25)"><path id="SvgjsPath1185" d="M 115 0Q 106 0 106 9L 106 106Q 106 115 93 115Q 106 115 106 124L 106 221Q 106 230 115 230" stroke="rgba(50,50,50,1)" stroke-width="2" fill="none"></path><path id="SvgjsPath1186" d="M 0 0L 115 0L 115 230L 0 230Z" stroke="none" fill="none"></path><g id="SvgjsG1187"><text id="SvgjsText1188" font-family="微软雅黑" text-anchor="end" font-size="13px" width="88px" fill="#323232" font-weight="400" align="middle" lineHeight="125%" anchor="end" family="微软雅黑" size="13px" weight="400" font-style="" opacity="1" y="104.375" transform="rotate(0)"></text></g></g><g id="SvgjsG1189" transform="translate(114.5,171)"><path id="SvgjsPath1190" d="M 0 0L 98 0L 81.66666666666667 37L 16.333333333333332 37L 0 0Z" stroke="rgba(50,50,50,1)" stroke-width="2" fill-opacity="1" fill="#e0e0e0"></path><g id="SvgjsG1191"><text id="SvgjsText1192" font-family="&quot;Courier New&quot;" text-anchor="middle" font-size="20px" width="79px" fill="#323232" font-weight="700" align="middle" lineHeight="125%" anchor="middle" family="&quot;Courier New&quot;" size="20px" weight="700" font-style="italic" opacity="1" y="0.5" transform="rotate(0)"><tspan id="SvgjsTspan1193" dy="25" x="49.3"><tspan id="SvgjsTspan1194" style="text-decoration:;">hash</tspan></tspan></text></g></g><g id="SvgjsG1195"><path id="SvgjsPath1196" d="M495.5 140L163.5 140L163.5 167.39999999999998" stroke="#323232" stroke-width="2" fill="none" marker-end="url(#SvgjsMarker1197)"></path></g><g id="SvgjsG1199" transform="translate(134.5,99)"><path id="SvgjsPath1200" d="M 0 0L 391 0L 391 49L 0 49Z" stroke="none" fill="none"></path><g id="SvgjsG1201"><text id="SvgjsText1202" font-family="微软雅黑" text-anchor="middle" font-size="20px" width="391px" fill="#323232" font-weight="400" align="middle" lineHeight="125%" anchor="middle" family="微软雅黑" size="20px" weight="400" font-style="" opacity="1" y="6.5" transform="rotate(0)"><tspan id="SvgjsTspan1203" dy="25" x="195.5"><tspan id="SvgjsTspan1204" style="text-decoration:;">未签名的证书</tspan></tspan></text></g></g><g id="SvgjsG1205" transform="translate(25,255)"><path id="SvgjsPath1206" d="M 0 0L 277 0L 277 58L 0 58Z" stroke="rgba(50,50,50,1)" stroke-width="2" fill-opacity="1" fill="#c8e6c9"></path><g id="SvgjsG1207"><text id="SvgjsText1208" font-family="微软雅黑" text-anchor="middle" font-size="22px" width="257px" fill="#323232" font-weight="400" align="middle" lineHeight="125%" anchor="middle" family="微软雅黑" size="22px" weight="400" font-style="" opacity="1" y="9.25" transform="rotate(0)"><tspan id="SvgjsTspan1209" dy="27" x="138.5"><tspan id="SvgjsTspan1210" style="text-decoration:;">未签名证书的hash码</tspan></tspan></text></g></g><g id="SvgjsG1211"><path id="SvgjsPath1212" d="M163.5 209L163.5 231.5L163.5 231.5L163.5 251.39999999999998" stroke="#323232" stroke-width="2" fill="none" marker-end="url(#SvgjsMarker1213)"></path></g><g id="SvgjsG1215" transform="translate(379.25,269)"><path id="SvgjsPath1216" d="M 0 4Q 0 0 4 0L 65 0Q 69 0 69 4L 69 26Q 69 30 65 30L 4 30Q 0 30 0 26Z" stroke="rgba(50,50,50,1)" stroke-width="2" fill-opacity="1" fill="#e0e0e0"></path><g id="SvgjsG1217"><text id="SvgjsText1218" font-family="&quot;Courier New&quot;" text-anchor="middle" font-size="19px" width="49px" fill="#323232" font-weight="700" align="middle" lineHeight="125%" anchor="middle" family="&quot;Courier New&quot;" size="19px" weight="700" font-style="italic" opacity="1" y="-1.375" transform="rotate(0)"><tspan id="SvgjsTspan1219" dy="23" x="34.5"><tspan id="SvgjsTspan1220" style="text-decoration:;">sign</tspan></tspan></text></g></g><g id="SvgjsG1221"><path id="SvgjsPath1222" d="M303 284L340.625 284L340.625 284L375.65 284" stroke="#323232" stroke-width="2" fill="none" marker-end="url(#SvgjsMarker1223)"></path></g><g id="SvgjsG1225"><path id="SvgjsPath1226" d="M449.25 284L486.875 284L486.875 284L521.9 284" stroke="#323232" stroke-width="2" fill="none" marker-end="url(#SvgjsMarker1227)"></path></g><g id="SvgjsG1229" transform="translate(562,419)"><path id="SvgjsPath1230" d="M 0 0L 109 0L 109 53L 0 53Z" stroke="rgba(50,50,50,1)" stroke-width="2" fill-opacity="1" fill="#b2ebf2"></path><g id="SvgjsG1231"><text id="SvgjsText1232" font-family="微软雅黑" text-anchor="middle" font-size="20px" width="89px" fill="#323232" font-weight="400" align="middle" lineHeight="125%" anchor="middle" family="微软雅黑" size="20px" weight="400" font-style="" opacity="1" y="8.5" transform="rotate(0)"><tspan id="SvgjsTspan1233" dy="25" x="54.5"><tspan id="SvgjsTspan1234" style="text-decoration:;">私钥</tspan></tspan></text></g></g><g id="SvgjsG1235" transform="translate(665,419)"><path id="SvgjsPath1236" d="M 0 0L 109 0L 109 53L 0 53Z" stroke="rgba(50,50,50,1)" stroke-width="2" fill-opacity="1" fill="#bbdefb"></path><g id="SvgjsG1237"><text id="SvgjsText1238" font-family="微软雅黑" text-anchor="middle" font-size="20px" width="89px" fill="#323232" font-weight="400" align="middle" lineHeight="125%" anchor="middle" family="微软雅黑" size="20px" weight="400" font-style="" opacity="1" y="8.5" transform="rotate(0)"><tspan id="SvgjsTspan1239" dy="25" x="54.5"><tspan id="SvgjsTspan1240" style="text-decoration:;">公钥</tspan></tspan></text></g></g><g id="SvgjsG1241" transform="translate(609,476)"><path id="SvgjsPath1242" d="M 0 0L 120 0L 120 40L 0 40Z" stroke="none" fill="none"></path><g id="SvgjsG1243"><text id="SvgjsText1244" font-family="微软雅黑" text-anchor="middle" font-size="20px" width="120px" fill="#323232" font-weight="400" align="middle" lineHeight="125%" anchor="middle" family="微软雅黑" size="20px" weight="400" font-style="" opacity="1" y="2" transform="rotate(0)"><tspan id="SvgjsTspan1245" dy="25" x="60"><tspan id="SvgjsTspan1246" style="text-decoration:;">CA公私钥对</tspan></tspan></text></g></g><g id="SvgjsG1247"><path id="SvgjsPath1248" d="M561 445.5L413.75 445.5L413.75 302.6" stroke="#323232" stroke-width="2" fill="none" marker-end="url(#SvgjsMarker1249)"></path></g><g id="SvgjsG1251" transform="translate(807.5,25)"><path id="SvgjsPath1252" d="M 0 228Q 9 228 9 219L 9 123Q 9 114 22 114Q 9 114 9 105L 9 9Q 9 0 0 0" stroke="rgba(50,50,50,1)" stroke-width="2" fill="none"></path><path id="SvgjsPath1253" d="M 0 0L 102 0L 102 228L 0 228Z" stroke="none" fill="none"></path><g id="SvgjsG1254"><text id="SvgjsText1255" font-family="微软雅黑" text-anchor="start" font-size="13px" width="75px" fill="#323232" font-weight="400" align="middle" lineHeight="125%" anchor="start" family="微软雅黑" size="13px" weight="400" font-style="" opacity="1" y="103.375" transform="rotate(0)"></text></g></g><g id="SvgjsG1256" transform="translate(918.5,178)"><path id="SvgjsPath1257" d="M 0 0L 98 0L 81.66666666666667 37L 16.333333333333332 37L 0 0Z" stroke="rgba(50,50,50,1)" stroke-width="2" fill-opacity="1" fill="#e0e0e0"></path><g id="SvgjsG1258"><text id="SvgjsText1259" font-family="&quot;Courier New&quot;" text-anchor="middle" font-size="20px" width="79px" fill="#323232" font-weight="700" align="middle" lineHeight="125%" anchor="middle" family="&quot;Courier New&quot;" size="20px" weight="700" font-style="italic" opacity="1" y="0.5" transform="rotate(0)"><tspan id="SvgjsTspan1260" dy="25" x="49.3"><tspan id="SvgjsTspan1261" style="text-decoration:;">hash</tspan></tspan></text></g></g><g id="SvgjsG1262"><path id="SvgjsPath1263" d="M830.5 139L967.5 139L967.5 174.39999999999998" stroke="#323232" stroke-width="2" fill="none" marker-end="url(#SvgjsMarker1264)"></path></g><g id="SvgjsG1266" transform="translate(916,266.5)"><path id="SvgjsPath1267" d="M 0 4Q 0 0 4 0L 99 0Q 103 0 103 4L 103 31Q 103 35 99 35L 4 35Q 0 35 0 31Z" stroke="rgba(50,50,50,1)" stroke-width="2" fill-opacity="1" fill="#e0e0e0"></path><g id="SvgjsG1268"><text id="SvgjsText1269" font-family="&quot;Courier New&quot;" text-anchor="middle" font-size="20px" width="83px" fill="#323232" font-weight="700" align="middle" lineHeight="125%" anchor="middle" family="&quot;Courier New&quot;" size="20px" weight="700" font-style="italic" opacity="1" y="-0.5" transform="rotate(0)"><tspan id="SvgjsTspan1270" dy="25" x="51.5"><tspan id="SvgjsTspan1271" style="text-decoration:;">verify</tspan></tspan></text></g></g><g id="SvgjsG1272"><path id="SvgjsPath1273" d="M967.5 216L967.5 240.75L967.5 240.75L967.5 262.9" stroke="#323232" stroke-width="2" fill="none" marker-end="url(#SvgjsMarker1274)"></path></g><g id="SvgjsG1276"><path id="SvgjsPath1277" d="M803.5 284L859.25 284L859.25 284L912.4000000000001 284" stroke="#323232" stroke-width="2" fill="none" marker-end="url(#SvgjsMarker1278)"></path></g><g id="SvgjsG1280"><path id="SvgjsPath1281" d="M775 445.5L967.5 445.5L967.5 305.1" stroke="#323232" stroke-width="2" fill="none" marker-end="url(#SvgjsMarker1282)"></path></g><g id="SvgjsG1284"><path id="SvgjsPath1285" d="M1020 284L1091.25 284L1091.25 284L1163.5 284" stroke="#323232" stroke-width="2" fill="none" marker-end="url(#SvgjsMarker1286)"></path></g><g id="SvgjsG1288" transform="translate(977.5,232)"><path id="SvgjsPath1289" d="M 0 0L 391 0L 391 49L 0 49Z" stroke="none" fill="none"></path><g id="SvgjsG1290"><text id="SvgjsText1291" font-family="微软雅黑" text-anchor="middle" font-size="20px" width="391px" fill="#323232" font-weight="400" align="middle" lineHeight="125%" anchor="middle" family="微软雅黑" size="20px" weight="400" font-style="" opacity="1" y="6.5" transform="rotate(0)"><tspan id="SvgjsTspan1292" dy="25" x="195.5"><tspan id="SvgjsTspan1293" style="text-decoration:;">有效性</tspan></tspan></text></g></g></svg>