<?xml version="1.0" encoding="UTF-8" standalone="no"?><svg xmlns="http://www.w3.org/2000/svg" xmlns:xlink="http://www.w3.org/1999/xlink" contentStyleType="text/css" height="373px" preserveAspectRatio="none" style="width:325px;height:373px;background:#FFFFFF;" version="1.1" viewBox="0 0 325 373" width="325px" zoomAndPan="magnify"><defs/><g><line style="stroke:#181818;stroke-width:0.5;stroke-dasharray:5.0,5.0;" x1="53" x2="53" y1="40.2719" y2="181.568"/><line style="stroke:#A80036;stroke-width:1.0;stroke-dasharray:1.0,4.0;" x1="53" x2="53" y1="181.568" y2="225.4959"/><line style="stroke:#181818;stroke-width:0.5;stroke-dasharray:5.0,5.0;" x1="53" x2="53" y1="225.4959" y2="333.9679"/><line style="stroke:#181818;stroke-width:0.5;stroke-dasharray:5.0,5.0;" x1="184" x2="184" y1="40.2719" y2="181.568"/><line style="stroke:#A80036;stroke-width:1.0;stroke-dasharray:1.0,4.0;" x1="184" x2="184" y1="181.568" y2="225.4959"/><line style="stroke:#181818;stroke-width:0.5;stroke-dasharray:5.0,5.0;" x1="184" x2="184" y1="225.4959" y2="333.9679"/><line style="stroke:#181818;stroke-width:0.5;stroke-dasharray:5.0,5.0;" x1="277" x2="277" y1="40.2719" y2="181.568"/><line style="stroke:#A80036;stroke-width:1.0;stroke-dasharray:1.0,4.0;" x1="277" x2="277" y1="181.568" y2="225.4959"/><line style="stroke:#181818;stroke-width:0.5;stroke-dasharray:5.0,5.0;" x1="277" x2="277" y1="225.4959" y2="333.9679"/><rect fill="#E2E2F0" height="34.2719" rx="2.5" ry="2.5" style="stroke:#181818;stroke-width:0.5;" width="96" x="5" y="5"/><text fill="#000000" font-family="sans-serif" font-size="14" lengthAdjust="spacing" textLength="82" x="12" y="28.2399">EAP被认证端</text><rect fill="#E2E2F0" height="34.2719" rx="2.5" ry="2.5" style="stroke:#181818;stroke-width:0.5;" width="96" x="5" y="332.9679"/><text fill="#000000" font-family="sans-serif" font-size="14" lengthAdjust="spacing" textLength="82" x="12" y="356.2078">EAP被认证端</text><rect fill="#E2E2F0" height="34.2719" rx="2.5" ry="2.5" style="stroke:#181818;stroke-width:0.5;" width="82" x="143" y="5"/><text fill="#000000" font-family="sans-serif" font-size="14" lengthAdjust="spacing" textLength="68" x="150" y="28.2399">EAP认证者</text><rect fill="#E2E2F0" height="34.2719" rx="2.5" ry="2.5" style="stroke:#181818;stroke-width:0.5;" width="82" x="143" y="332.9679"/><text fill="#000000" font-family="sans-serif" font-size="14" lengthAdjust="spacing" textLength="68" x="150" y="356.2078">EAP认证者</text><rect fill="#E2E2F0" height="34.2719" rx="2.5" ry="2.5" style="stroke:#181818;stroke-width:0.5;" width="84" x="235" y="5"/><text fill="#000000" font-family="sans-serif" font-size="14" lengthAdjust="spacing" textLength="70" x="242" y="28.2399">认证服务器</text><rect fill="#E2E2F0" height="34.2719" rx="2.5" ry="2.5" style="stroke:#181818;stroke-width:0.5;" width="84" x="235" y="332.9679"/><text fill="#000000" font-family="sans-serif" font-size="14" lengthAdjust="spacing" textLength="70" x="242" y="356.2078">认证服务器</text><polygon fill="#181818" points="64,71.0959,54,75.0959,64,79.0959,60,75.0959" style="stroke:#181818;stroke-width:1.0;"/><line style="stroke:#181818;stroke-width:1.0;" x1="58" x2="183" y1="75.0959" y2="75.0959"/><text fill="#000000" font-family="sans-serif" font-size="13" lengthAdjust="spacing" textLength="107" x="65" y="69.3519">EAP请求/身份标识</text><polygon fill="#181818" points="265,103.9199,275,107.9199,265,111.9199,269,107.9199" style="stroke:#181818;stroke-width:1.0;"/><line style="stroke:#181818;stroke-width:1.0;" x1="53" x2="271" y1="107.9199" y2="107.9199"/><text fill="#000000" font-family="sans-serif" font-size="13" lengthAdjust="spacing" textLength="107" x="111.5" y="102.1759">EAP应答/身份标识</text><polygon fill="#181818" points="64,136.744,54,140.744,64,144.744,60,140.744" style="stroke:#181818;stroke-width:1.0;"/><line style="stroke:#181818;stroke-width:1.0;" x1="58" x2="276" y1="140.744" y2="140.744"/><text fill="#000000" font-family="sans-serif" font-size="13" lengthAdjust="spacing" textLength="81" x="124.5" y="135">EAP请求/认证</text><polygon fill="#181818" points="265,169.568,275,173.568,265,177.568,269,173.568" style="stroke:#181818;stroke-width:1.0;"/><line style="stroke:#181818;stroke-width:1.0;" x1="53" x2="271" y1="173.568" y2="173.568"/><text fill="#000000" font-family="sans-serif" font-size="13" lengthAdjust="spacing" textLength="81" x="124.5" y="167.824">EAP应答/认证</text><text fill="#000000" font-family="sans-serif" font-size="11" lengthAdjust="spacing" textLength="9" x="160.5" y="208.3279">...</text><polygon fill="#181818" points="64,246.3199,54,250.3199,64,254.3199,60,250.3199" style="stroke:#181818;stroke-width:1.0;"/><line style="stroke:#181818;stroke-width:1.0;" x1="58" x2="276" y1="250.3199" y2="250.3199"/><text fill="#000000" font-family="sans-serif" font-size="13" lengthAdjust="spacing" textLength="81" x="124.5" y="244.5759">EAP请求/认证</text><polygon fill="#181818" points="265,279.1439,275,283.1439,265,287.1439,269,283.1439" style="stroke:#181818;stroke-width:1.0;"/><line style="stroke:#181818;stroke-width:1.0;" x1="53" x2="271" y1="283.1439" y2="283.1439"/><text fill="#000000" font-family="sans-serif" font-size="13" lengthAdjust="spacing" textLength="81" x="124.5" y="277.3999">EAP应答/认证</text><polygon fill="#181818" points="64,311.9679,54,315.9679,64,319.9679,60,315.9679" style="stroke:#181818;stroke-width:1.0;"/><line style="stroke:#181818;stroke-width:1.0;" x1="58" x2="276" y1="315.9679" y2="315.9679"/><text fill="#000000" font-family="sans-serif" font-size="13" lengthAdjust="spacing" textLength="81" x="124.5" y="310.2239">EAP成功/失败</text><!--MD5=[cacd226d86c7fd8f3bb3e7d7cec8e4f6]
@startuml
skinparam sequenceMessageAlign center
participant "EAP被认证端" as A
participant "EAP认证者" as B
participant "认证服务器" as C
B -> A : EAP请求/身份标识
A -> C : EAP应答/身份标识
C -> A : EAP请求/认证
A -> C : EAP应答/认证
.........
C -> A : EAP请求/认证
A -> C : EAP应答/认证
C -> A : EAP成功/失败
@enduml

PlantUML version 1.2022.4(Sat Apr 09 21:29:17 CST 2022)
(GPL source distribution)
Java Runtime: OpenJDK Runtime Environment
JVM: OpenJDK 64-Bit Server VM
Default Encoding: UTF-8
Language: zh
Country: CN
--></g></svg>