<?xml version="1.0" encoding="UTF-8" standalone="no"?><svg xmlns="http://www.w3.org/2000/svg" xmlns:xlink="http://www.w3.org/1999/xlink" contentStyleType="text/css" height="482px" preserveAspectRatio="none" style="width:403px;height:482px;background:#FFFFFF;" version="1.1" viewBox="0 0 403 482" width="403px" zoomAndPan="magnify"><defs/><g><line style="stroke:#181818;stroke-width:0.5;stroke-dasharray:5.0,5.0;" x1="53" x2="53" y1="40.2719" y2="214.392"/><line style="stroke:#A80036;stroke-width:1.0;stroke-dasharray:1.0,4.0;" x1="53" x2="53" y1="214.392" y2="258.3199"/><line style="stroke:#181818;stroke-width:0.5;stroke-dasharray:5.0,5.0;" x1="53" x2="53" y1="258.3199" y2="356.7919"/><line style="stroke:#A80036;stroke-width:1.0;stroke-dasharray:1.0,4.0;" x1="53" x2="53" y1="356.7919" y2="400.7198"/><line style="stroke:#181818;stroke-width:0.5;stroke-dasharray:5.0,5.0;" x1="53" x2="53" y1="400.7198" y2="443.5438"/><line style="stroke:#181818;stroke-width:0.5;stroke-dasharray:5.0,5.0;" x1="262" x2="262" y1="40.2719" y2="214.392"/><line style="stroke:#A80036;stroke-width:1.0;stroke-dasharray:1.0,4.0;" x1="262" x2="262" y1="214.392" y2="258.3199"/><line style="stroke:#181818;stroke-width:0.5;stroke-dasharray:5.0,5.0;" x1="262" x2="262" y1="258.3199" y2="356.7919"/><line style="stroke:#A80036;stroke-width:1.0;stroke-dasharray:1.0,4.0;" x1="262" x2="262" y1="356.7919" y2="400.7198"/><line style="stroke:#181818;stroke-width:0.5;stroke-dasharray:5.0,5.0;" x1="262" x2="262" y1="400.7198" y2="443.5438"/><line style="stroke:#181818;stroke-width:0.5;stroke-dasharray:5.0,5.0;" x1="355" x2="355" y1="40.2719" y2="214.392"/><line style="stroke:#A80036;stroke-width:1.0;stroke-dasharray:1.0,4.0;" x1="355" x2="355" y1="214.392" y2="258.3199"/><line style="stroke:#181818;stroke-width:0.5;stroke-dasharray:5.0,5.0;" x1="355" x2="355" y1="258.3199" y2="356.7919"/><line style="stroke:#A80036;stroke-width:1.0;stroke-dasharray:1.0,4.0;" x1="355" x2="355" y1="356.7919" y2="400.7198"/><line style="stroke:#181818;stroke-width:0.5;stroke-dasharray:5.0,5.0;" x1="355" x2="355" y1="400.7198" y2="443.5438"/><rect fill="#E2E2F0" height="34.2719" rx="2.5" ry="2.5" style="stroke:#181818;stroke-width:0.5;" width="96" x="5" y="5"/><text fill="#000000" font-family="sans-serif" font-size="14" lengthAdjust="spacing" textLength="82" x="12" y="28.2399">EAP被认证端</text><rect fill="#E2E2F0" height="34.2719" rx="2.5" ry="2.5" style="stroke:#181818;stroke-width:0.5;" width="96" x="5" y="442.5438"/><text fill="#000000" font-family="sans-serif" font-size="14" lengthAdjust="spacing" textLength="82" x="12" y="465.7838">EAP被认证端</text><rect fill="#E2E2F0" height="34.2719" rx="2.5" ry="2.5" style="stroke:#181818;stroke-width:0.5;" width="82" x="221" y="5"/><text fill="#000000" font-family="sans-serif" font-size="14" lengthAdjust="spacing" textLength="68" x="228" y="28.2399">EAP认证者</text><rect fill="#E2E2F0" height="34.2719" rx="2.5" ry="2.5" style="stroke:#181818;stroke-width:0.5;" width="82" x="221" y="442.5438"/><text fill="#000000" font-family="sans-serif" font-size="14" lengthAdjust="spacing" textLength="68" x="228" y="465.7838">EAP认证者</text><rect fill="#E2E2F0" height="34.2719" rx="2.5" ry="2.5" style="stroke:#181818;stroke-width:0.5;" width="84" x="313" y="5"/><text fill="#000000" font-family="sans-serif" font-size="14" lengthAdjust="spacing" textLength="70" x="320" y="28.2399">认证服务器</text><rect fill="#E2E2F0" height="34.2719" rx="2.5" ry="2.5" style="stroke:#181818;stroke-width:0.5;" width="84" x="313" y="442.5438"/><text fill="#000000" font-family="sans-serif" font-size="14" lengthAdjust="spacing" textLength="70" x="320" y="465.7838">认证服务器</text><polygon fill="#181818" points="250,71.0959,260,75.0959,250,79.0959,254,75.0959" style="stroke:#181818;stroke-width:1.0;"/><line style="stroke:#181818;stroke-width:1.0;" x1="53" x2="256" y1="75.0959" y2="75.0959"/><text fill="#000000" font-family="sans-serif" font-size="13" lengthAdjust="spacing" textLength="76" x="119.5" y="69.3519">EAPOL-Start</text><polygon fill="#181818" points="64,103.9199,54,107.9199,64,111.9199,60,107.9199" style="stroke:#181818;stroke-width:1.0;"/><line style="stroke:#181818;stroke-width:1.0;" x1="58" x2="261" y1="107.9199" y2="107.9199"/><text fill="#000000" font-family="sans-serif" font-size="13" lengthAdjust="spacing" textLength="185" x="65" y="102.1759">EAPOL-EAP(EAP请求/身份标识)</text><polygon fill="#181818" points="343,136.744,353,140.744,343,144.744,347,140.744" style="stroke:#181818;stroke-width:1.0;"/><line style="stroke:#181818;stroke-width:1.0;" x1="53" x2="349" y1="140.744" y2="140.744"/><text fill="#000000" font-family="sans-serif" font-size="13" lengthAdjust="spacing" textLength="185" x="111.5" y="135">EAPOL-EAP(EAP应答/身份标识)</text><polygon fill="#181818" points="64,169.568,54,173.568,64,177.568,60,173.568" style="stroke:#181818;stroke-width:1.0;"/><line style="stroke:#181818;stroke-width:1.0;" x1="58" x2="354" y1="173.568" y2="173.568"/><text fill="#000000" font-family="sans-serif" font-size="13" lengthAdjust="spacing" textLength="159" x="124.5" y="167.824">EAPOL-EAP(EAP请求/认证)</text><polygon fill="#181818" points="343,202.392,353,206.392,343,210.392,347,206.392" style="stroke:#181818;stroke-width:1.0;"/><line style="stroke:#181818;stroke-width:1.0;" x1="53" x2="349" y1="206.392" y2="206.392"/><text fill="#000000" font-family="sans-serif" font-size="13" lengthAdjust="spacing" textLength="159" x="124.5" y="200.648">EAPOL-EAP(EAP应答/认证)</text><text fill="#000000" font-family="sans-serif" font-size="11" lengthAdjust="spacing" textLength="9" x="199.5" y="241.1519">...</text><polygon fill="#181818" points="64,279.1439,54,283.1439,64,287.1439,60,283.1439" style="stroke:#181818;stroke-width:1.0;"/><line style="stroke:#181818;stroke-width:1.0;" x1="58" x2="354" y1="283.1439" y2="283.1439"/><text fill="#000000" font-family="sans-serif" font-size="13" lengthAdjust="spacing" textLength="159" x="124.5" y="277.3999">EAPOL-EAP(EAP请求/认证)</text><polygon fill="#181818" points="343,311.9679,353,315.9679,343,319.9679,347,315.9679" style="stroke:#181818;stroke-width:1.0;"/><line style="stroke:#181818;stroke-width:1.0;" x1="53" x2="349" y1="315.9679" y2="315.9679"/><text fill="#000000" font-family="sans-serif" font-size="13" lengthAdjust="spacing" textLength="159" x="124.5" y="310.2239">EAPOL-EAP(EAP应答/认证)</text><polygon fill="#181818" points="64,344.7919,54,348.7919,64,352.7919,60,348.7919" style="stroke:#181818;stroke-width:1.0;"/><line style="stroke:#181818;stroke-width:1.0;" x1="58" x2="354" y1="348.7919" y2="348.7919"/><text fill="#000000" font-family="sans-serif" font-size="13" lengthAdjust="spacing" textLength="128" x="140" y="343.0479">EAPOL-EAP(EAP成功)</text><text fill="#000000" font-family="sans-serif" font-size="11" lengthAdjust="spacing" textLength="9" x="199.5" y="383.5518">...</text><polygon fill="#181818" points="250,421.5438,260,425.5438,250,429.5438,254,425.5438" style="stroke:#181818;stroke-width:1.0;"/><line style="stroke:#181818;stroke-width:1.0;" x1="53" x2="256" y1="425.5438" y2="425.5438"/><text fill="#000000" font-family="sans-serif" font-size="13" lengthAdjust="spacing" textLength="84" x="115.5" y="419.7998">EAPOL-Logoff</text><!--MD5=[992310f2556248e0ffa74fd41d588364]
@startuml
skinparam sequenceMessageAlign center
participant "EAP被认证端" as A
participant "EAP认证者" as B
participant "认证服务器" as C
A -> B : EAPOL-Start
B -> A : EAPOL-EAP(EAP请求/身份标识)
A -> C : EAPOL-EAP(EAP应答/身份标识)
C -> A : EAPOL-EAP(EAP请求/认证)
A -> C : EAPOL-EAP(EAP应答/认证)
.........
C -> A : EAPOL-EAP(EAP请求/认证)
A -> C : EAPOL-EAP(EAP应答/认证)
C -> A : EAPOL-EAP(EAP成功)
.........
A -> B : EAPOL-Logoff
@enduml

PlantUML version 1.2022.4(Sat Apr 09 21:29:17 CST 2022)
(GPL source distribution)
Java Runtime: OpenJDK Runtime Environment
JVM: OpenJDK 64-Bit Server VM
Default Encoding: UTF-8
Language: zh
Country: CN
--></g></svg>